<svg width="89" height="116" viewBox="0 0 89 116" fill="none" xmlns="http://www.w3.org/2000/svg">
<path d="M30.3524 47.0588C33.8298 47.0588 33.8356 41.6548 30.3524 41.6548C26.8749 41.6548 26.8692 47.0588 30.3524 47.0588Z" fill="#FF9396"/>
<path d="M28.9349 95.788C28.9349 95.788 44.4355 119.48 50.4181 115.563L28.9349 95.788Z" fill="#1A007F"/>
<path d="M21.2489 66.9699C17.9524 66.9699 14.8183 67.7262 12.0294 69.0664C9.86816 70.1151 7.90134 71.5091 6.226 73.1955C2.37833 77.0321 0 82.339 0 88.2078C0 99.0161 8.75462 107.771 19.563 107.771C25.1508 107.771 30.1984 105.426 33.7652 101.664C34.1762 101.232 34.5652 100.788 34.922 100.313C37.5591 96.984 39.1259 92.7796 39.1259 88.2078V66.9699H21.2489ZM20.3951 96.0438C15.3259 96.0438 11.2088 91.9258 11.2088 86.857C11.2088 81.7878 15.3259 77.6698 20.3951 77.6698C25.4644 77.6698 29.5824 81.7878 29.5824 86.857C29.5824 91.9258 25.4644 96.0438 20.3951 96.0438Z" fill="#1A007F"/>
<path d="M88.4606 34.0351C88.4606 49.0608 79.9216 62.0093 63.1508 66.2051C59.4208 67.1511 55.2908 67.6572 50.7617 67.6572H38.4404V35.6869H38.3467H38.3198C37.3076 35.5668 36.2824 35.5135 35.2433 35.5135C20.6569 35.5135 8.6808 46.6499 7.33534 60.8636V14.3146C7.33534 6.40895 13.7448 0 21.6509 0H50.7617C75.6984 0 88.4606 14.0001 88.4606 34.0351Z" fill="#FF536A"/>
</svg>
